<svg version="1.1" id="Layer_1" xmlns="http://www.w3.org/2000/svg" xmlns:xlink="http://www.w3.org/1999/xlink" x="0px" y="0px"
	 width="100%" viewBox="0 0 512 512" enable-background="new 0 0 512 512" xml:space="preserve">
<path fill="#000000" opacity="1.000000" stroke="none" 
	d="
M471.000000,1.000000 
	C484.985046,1.000000 498.970093,1.000000 513.000000,1.000000 
	C513.000000,123.354225 513.000000,245.708450 512.662720,368.449707 
	C509.371582,367.541168 506.543518,369.670929 503.480164,368.994080 
	C495.406158,367.210022 494.373993,367.920990 490.810638,375.404297 
	C489.570953,378.007812 488.610962,380.736603 488.667572,383.548462 
	C488.888702,394.533417 483.575470,403.544189 479.198334,413.094208 
	C474.797791,422.695282 469.410706,431.874359 466.701477,442.329773 
	C464.975800,448.989563 461.544342,455.384705 455.756805,459.772217 
	C450.156860,464.017487 449.768799,468.768250 455.028351,473.284973 
	C462.783142,479.944519 462.261017,483.190399 454.150574,489.518188 
	C446.719696,495.315857 443.411804,503.801178 442.000000,513.000000 
	C323.979095,513.000000 205.958206,513.000000 87.556854,512.654114 
	C87.105789,509.149963 86.879723,505.985443 87.005768,502.835052 
	C87.148621,499.264191 86.089401,496.284058 83.493187,493.857422 
	C77.928429,488.656189 77.833405,482.265503 78.033775,475.066071 
	C78.508698,458.001923 76.173233,441.062408 73.561005,424.203369 
	C73.485992,423.719177 73.236511,423.260010 73.054039,422.794830 
	C70.681664,416.746826 68.220016,410.732147 65.948608,404.646484 
	C59.125881,386.366699 54.724899,367.642487 56.734268,347.960693 
	C57.498360,340.476410 55.412640,334.024933 50.706776,328.512146 
	C47.448372,324.694977 46.785622,320.657379 47.494869,315.978821 
	C48.425312,309.841248 48.754490,303.666748 46.655178,297.682892 
	C43.219894,287.890991 43.555080,278.112244 46.023357,268.165802 
	C49.072147,255.880020 51.875217,243.531219 54.619995,231.173141 
	C55.639915,226.581055 57.349545,222.331833 59.216824,218.029358 
	C63.849659,207.354630 67.147049,196.246185 68.932114,184.689697 
	C70.345657,175.538406 69.313339,166.408325 69.151611,157.277161 
	C68.917648,144.066971 70.398880,131.464493 78.045456,120.050575 
	C82.661316,113.160583 87.020416,106.069298 90.871964,98.653694 
	C94.768715,91.151070 98.189804,83.137886 104.453781,77.205963 
	C115.181061,67.047310 124.217110,55.718239 131.508194,42.824287 
	C137.363907,32.468739 138.259644,21.726566 135.894608,10.488920 
	C135.052826,6.489119 132.463287,3.318943 129.000000,1.000000 
	C231.020889,1.000000 333.041779,1.000000 435.235840,1.120832 
	C434.207855,1.993463 432.325195,1.404283 431.345123,3.714327 
	C436.018890,6.835736 439.605377,11.043134 441.253296,16.704302 
	C441.542755,17.698849 442.570709,18.804281 443.534424,19.226025 
	C452.615509,23.200165 462.032745,24.879305 471.592712,21.434895 
	C475.088440,20.175402 478.829437,17.888762 478.420715,13.214767 
	C477.970001,8.061446 477.335938,2.713257 471.000000,1.000000 
M392.468292,117.021317 
	C385.968445,104.146065 377.890930,92.375359 367.880371,81.964424 
	C332.529602,45.199856 289.361603,28.876673 238.752960,34.678028 
	C199.210449,39.210850 166.546280,57.650242 140.701019,88.090530 
	C102.111687,133.540665 94.429817,201.114883 121.888710,253.955627 
	C133.005020,275.347382 148.816132,292.522888 167.524292,307.558411 
	C201.050858,334.503296 225.768616,368.195862 241.899948,408.108276 
	C244.581848,414.743896 246.905060,421.523712 249.488403,428.200378 
	C250.777664,431.532440 252.937042,433.894684 256.899231,433.799866 
	C260.724060,433.708313 263.047363,431.561798 264.444580,428.236847 
	C265.282471,426.242889 265.992310,424.192902 266.706390,422.149475 
	C283.415649,374.332428 311.820984,334.946014 351.383911,303.322754 
	C386.644775,275.138275 405.464630,237.927917 408.479523,193.119919 
	C410.254150,166.744736 404.702087,141.446686 392.468292,117.021317 
M326.080261,441.545685 
	C316.550293,429.063568 302.650330,424.609528 288.305206,420.953827 
	C285.926483,420.347656 284.987244,421.692871 284.262268,423.579926 
	C282.531281,428.085571 280.986603,432.681854 278.951569,437.048096 
	C273.079041,449.648041 257.674133,454.547607 245.501663,448.039490 
	C237.786621,443.914642 234.617584,436.732483 231.858093,429.095917 
	C228.530411,419.886871 228.397324,419.732788 219.283371,422.488617 
	C208.383514,425.784485 197.730728,429.765869 189.977448,438.721802 
	C183.907715,445.733032 184.055481,452.311615 190.077835,459.306641 
	C193.497452,463.278595 197.600739,466.452576 202.298767,468.661469 
	C234.865936,483.973969 268.191254,484.164032 301.880035,473.018066 
	C310.281830,470.238312 318.108398,466.052124 324.053375,459.100616 
	C328.453186,453.955780 330.105652,448.450439 326.080261,441.545685 
z"/>
<path fill="#000000" opacity="1.000000" stroke="none" 
	d="
M234.753189,319.474609 
	C180.746338,309.062439 144.879013,278.013733 127.046539,226.593781 
	C118.435631,201.764252 117.572144,176.046219 124.567795,150.810776 
	C135.454575,111.538803 158.818771,81.706932 195.461533,62.844521 
	C215.437057,52.561810 236.919861,47.984982 259.061493,47.892445 
	C281.006744,47.800735 301.773346,54.045078 321.218842,64.307243 
	C334.247589,71.183052 346.457336,79.316116 356.483795,90.188126 
	C366.252960,100.781128 373.645691,113.093056 379.853027,126.045723 
	C419.261230,208.277740 368.903473,304.643066 278.888519,319.489807 
	C264.293213,321.897125 249.755692,322.042725 234.753189,319.474609 
M196.547348,287.885925 
	C254.447495,321.399292 326.905273,302.217987 360.560791,244.467667 
	C393.106567,188.621567 374.014130,115.635094 318.491241,82.671837 
	C260.177643,48.051743 187.787003,68.350060 154.863480,123.311623 
	C120.637413,180.447571 138.936401,253.322739 196.547348,287.885925 
z"/>
<path fill="#000000" opacity="1.000000" stroke="none" 
	d="
M233.627182,337.585571 
	C235.247772,337.049072 236.538345,336.721497 237.838379,336.678192 
	C249.599823,336.286041 251.659149,338.805817 249.190247,350.372925 
	C248.890961,351.775116 248.449509,353.083038 246.865601,353.122925 
	C242.908340,353.222595 238.943207,353.226929 234.988007,353.083252 
	C233.411789,353.026001 232.790955,351.681458 232.806885,350.245575 
	C232.852509,346.135712 232.165451,341.992401 233.627182,337.585571 
z"/>
<path fill="#000000" opacity="1.000000" stroke="none" 
	d="
M264.704346,345.008179 
	C264.776215,336.591278 264.776215,336.591278 274.672699,336.653168 
	C281.348877,336.694916 281.348877,336.694916 281.312592,345.780212 
	C281.282288,353.371643 281.282288,353.371643 272.593658,353.359192 
	C264.726593,353.347931 264.726593,353.347931 264.704346,345.008179 
z"/>
<path fill="#000000" opacity="1.000000" stroke="none" 
	d="
M284.099426,121.715179 
	C304.489197,129.119278 324.521179,136.366394 344.520721,143.702072 
	C352.437286,146.605804 353.368103,148.083023 353.372955,156.576370 
	C353.380524,169.737106 353.240387,182.899872 353.444885,196.057388 
	C353.509430,200.209091 352.107056,201.548492 347.991760,201.445404 
	C334.641022,201.110870 336.841705,202.997330 336.638550,190.010437 
	C336.539551,183.681473 336.552551,177.348831 336.640900,171.019608 
	C336.695374,167.118118 335.179291,166.034256 331.374512,167.113647 
	C321.727600,169.850403 321.379730,170.154678 321.376434,180.005814 
	C321.372375,192.000412 321.298553,203.995636 321.406708,215.989243 
	C321.443939,220.119385 319.887360,223.213989 316.210388,224.887878 
	C295.965485,234.104019 275.383026,242.554474 252.561584,241.243515 
	C232.649719,240.099670 214.313431,232.968246 196.603928,224.226486 
	C193.470871,222.679962 192.583008,219.645309 192.602600,216.200455 
	C192.677429,203.040146 192.507751,189.877319 192.704819,176.719559 
	C192.763733,172.785568 191.419266,170.481766 187.739059,169.172638 
	C180.996521,166.774185 174.332657,164.155472 167.618240,161.676682 
	C163.564941,160.180313 160.639557,157.893250 160.641052,153.072662 
	C160.642609,148.048431 163.659424,145.724060 167.938171,144.176453 
	C195.956665,134.042267 223.960648,123.867683 251.946106,113.642693 
	C255.425934,112.371292 258.741302,112.426056 262.162415,113.697639 
	C269.338135,116.364754 276.538452,118.965622 284.099426,121.715179 
M278.689240,137.958603 
	C272.901978,135.848495 267.086060,133.812637 261.339264,131.597534 
	C258.379120,130.456543 255.635193,130.516174 252.651596,131.625809 
	C236.581833,137.602341 220.456299,143.428818 204.374588,149.373520 
	C202.293167,150.142944 199.707428,150.456528 199.118835,153.265686 
	C199.784775,155.213043 201.559875,155.574020 203.058609,156.123932 
	C220.095856,162.375275 237.162766,168.545807 254.197769,174.803238 
	C256.200653,175.538956 258.010803,175.530548 259.996399,174.801056 
	C277.345673,168.427017 294.719391,162.119644 312.067902,155.743515 
	C313.535736,155.204025 315.430573,154.990677 315.820190,151.946991 
	C304.092621,146.698242 291.588470,142.882492 278.689240,137.958603 
M293.579224,216.072693 
	C304.529785,211.784531 304.616577,211.656754 304.625458,199.659363 
	C304.628693,195.330826 304.642609,191.002213 304.624268,186.673752 
	C304.592377,179.158371 302.615082,177.661224 295.550568,180.160919 
	C284.889099,183.933334 274.244843,187.763351 263.680481,191.797211 
	C259.250000,193.488907 255.108887,193.716949 250.623276,191.997803 
	C240.061966,187.950089 229.431015,184.077652 218.767914,180.304733 
	C213.652863,178.494873 209.645706,181.191589 209.597580,186.578979 
	C209.547104,192.227844 209.770645,197.909485 210.372070,203.523468 
	C210.791763,207.440765 213.556671,211.080017 217.180634,211.199921 
	C224.531372,211.443085 231.284775,214.611786 238.787613,214.280991 
	C245.656967,213.978104 253.291321,213.675980 259.127563,217.843369 
	C266.498077,223.106277 273.765564,222.111786 281.440186,219.961395 
	C285.283020,218.884644 289.062347,217.581375 293.579224,216.072693 
z"/>
</svg>