<svg version="1.1" id="Layer_1" xmlns="http://www.w3.org/2000/svg" xmlns:xlink="http://www.w3.org/1999/xlink" x="0px" y="0px"
	 width="100%" viewBox="0 0 225 224" enable-background="new 0 0 225 224" xml:space="preserve">
<path fill="#FE5001" opacity="1.000000" stroke="none" 
	d="
M226.000000,125.000000 
	C226.000000,153.687561 226.000000,182.375122 225.999496,211.906067 
	C224.059357,218.850708 219.956772,222.833405 214.000000,225.000000 
	C184.312439,225.000000 154.624878,225.000000 124.485703,224.654404 
	C120.439903,220.777267 116.845718,217.245728 112.959030,213.426788 
	C109.167389,217.430923 105.583702,221.215469 102.000000,225.000000 
	C72.312439,225.000000 42.624878,225.000000 12.327250,224.684021 
	C6.430164,222.684402 3.573133,218.488922 1.000000,214.000000 
	C1.000000,184.312439 1.000000,154.624878 1.345543,124.485580 
	C5.623775,120.414833 9.556466,116.795815 13.655775,113.023468 
	C8.841172,108.449409 4.920588,104.724701 1.000002,101.000000 
	C1.000000,72.312439 1.000000,43.624878 1.000500,14.099876 
	C2.856192,7.076554 7.076728,3.205199 13.000000,1.000000 
	C42.354229,1.000000 71.708458,1.000000 101.743866,1.254186 
	C106.218193,5.422944 110.011337,9.337516 114.135109,13.593305 
	C118.378075,9.089853 122.189041,5.044926 126.000000,1.000000 
	C155.020889,1.000000 184.041794,1.000000 213.686462,1.324512 
	C220.743179,2.820611 223.700928,7.571145 226.000000,13.000000 
	C226.000000,42.354229 226.000000,71.708458 225.654694,101.517349 
	C221.363571,105.648224 217.417740,109.324425 213.182770,113.270004 
	C218.014084,117.691498 222.007034,121.345749 226.000000,125.000000 
M122.899857,183.243225 
	C129.986221,183.243225 137.072586,183.243225 144.349716,183.243225 
	C144.349716,164.334625 144.352890,146.181198 144.348572,128.027756 
	C144.345871,116.697250 144.429764,105.365501 144.284729,94.036736 
	C144.202866,87.642570 140.613007,82.955742 134.905121,82.334167 
	C130.088760,81.809677 125.169952,82.226181 120.362183,82.226181 
	C120.910423,85.500404 121.372574,88.260498 121.433578,91.735619 
	C121.290878,92.712746 121.024330,93.689774 121.023514,94.667023 
	C120.999962,122.693085 120.988693,150.719193 121.043777,178.745163 
	C121.046570,180.166275 121.658539,181.586182 122.899857,183.243225 
M81.436493,88.730766 
	C81.294647,89.542488 81.029457,90.354111 81.028801,91.165947 
	C81.005180,120.377892 80.989105,149.589905 81.057487,178.801697 
	C81.060707,180.178085 81.845360,181.552643 83.032600,183.112778 
	C90.353844,183.075912 97.675079,183.039032 105.463341,182.318085 
	C105.641396,181.183319 105.973717,180.048706 105.974930,178.913742 
	C106.004257,151.376236 106.011726,123.838684 105.960457,96.301239 
	C105.957794,94.867973 105.400352,93.435730 104.843597,91.332504 
	C101.808327,81.977898 96.057503,80.826706 80.642548,82.741066 
	C81.043953,84.509491 81.441879,86.262650 81.436493,88.730766 
M184.477631,182.319916 
	C184.651108,181.182587 184.975006,180.045410 184.976074,178.907928 
	C185.003479,149.514282 185.014816,120.120583 184.948074,90.727074 
	C184.944519,89.161484 184.233246,87.597504 183.403931,85.424622 
	C178.902328,60.402946 159.551392,43.282711 133.834702,42.849442 
	C104.088524,42.348278 74.327362,42.734909 44.572727,42.757092 
	C44.131317,42.757420 43.690113,43.028893 42.914764,43.283531 
	C42.914764,47.424660 42.776104,51.557869 42.959591,55.676735 
	C43.100849,58.847717 43.647148,62.000664 44.730595,65.561401 
	C45.711971,65.705696 46.693233,65.975174 47.674736,65.976044 
	C74.995987,66.000328 102.317299,66.010056 129.638489,65.963524 
	C131.086014,65.961060 132.532654,65.444778 134.781235,65.052544 
	C149.514969,67.305840 157.516632,74.380173 160.394424,88.753494 
	C160.272507,89.402176 160.044495,90.050766 160.043915,90.699547 
	C160.017853,120.059746 159.995667,149.419998 160.053177,178.780090 
	C160.055893,180.171204 160.786591,181.560867 162.075836,183.148132 
	C169.389328,183.101501 176.702805,183.054886 184.477631,182.319916 
M65.530228,104.523193 
	C65.471909,100.532104 65.667221,96.517151 65.294495,92.555641 
	C64.765022,86.928055 60.853863,82.753784 55.474541,82.233566 
	C51.417030,81.841171 47.291142,82.155922 43.108692,82.155922 
	C43.108692,116.085289 43.108692,149.487274 43.108692,183.041931 
	C50.563908,183.041931 57.815777,183.041931 65.530151,183.041931 
	C65.530151,157.022415 65.530151,131.269287 65.530228,104.523193 
z"/>
<path fill="#FFF7F5" opacity="1.000000" stroke="none" 
	d="
M125.531364,1.000000 
	C122.189041,5.044926 118.378075,9.089853 114.135109,13.593305 
	C110.011337,9.337516 106.218193,5.422944 102.212524,1.254186 
	C109.687576,1.000000 117.375153,1.000000 125.531364,1.000000 
z"/>
<path fill="#FFFEFE" opacity="1.000000" stroke="none" 
	d="
M226.000000,124.531380 
	C222.007034,121.345749 218.014084,117.691498 213.182770,113.270004 
	C217.417740,109.324425 221.363571,105.648224 225.654694,101.986008 
	C226.000000,109.354256 226.000000,116.708504 226.000000,124.531380 
z"/>
<path fill="#FFFDFD" opacity="1.000000" stroke="none" 
	d="
M1.000002,101.468613 
	C4.920588,104.724701 8.841172,108.449409 13.655775,113.023468 
	C9.556466,116.795815 5.623775,120.414833 1.345543,124.016922 
	C1.000000,116.645744 1.000000,109.291496 1.000002,101.468613 
z"/>
<path fill="#FFFDFD" opacity="1.000000" stroke="none" 
	d="
M102.468582,225.000000 
	C105.583702,221.215469 109.167389,217.430923 112.959030,213.426788 
	C116.845718,217.245728 120.439903,220.777267 124.017044,224.654404 
	C116.979050,225.000000 109.958107,225.000000 102.468582,225.000000 
z"/>
<path fill="#FFF5F3" opacity="1.000000" stroke="none" 
	d="
M214.479187,225.000000 
	C219.956772,222.833405 224.059357,218.850708 225.999496,212.374725 
	C226.000000,216.252258 226.000000,220.504532 226.000000,225.000000 
	C222.321579,225.000000 218.639969,225.000000 214.479187,225.000000 
z"/>
<path fill="#FFF5F3" opacity="1.000000" stroke="none" 
	d="
M12.520824,1.000000 
	C7.076728,3.205199 2.856192,7.076554 1.000500,13.631218 
	C1.000000,9.747736 1.000000,5.495471 1.000000,1.000000 
	C4.678430,1.000000 8.360040,1.000000 12.520824,1.000000 
z"/>
<path fill="#FFF5F3" opacity="1.000000" stroke="none" 
	d="
M226.000000,12.520824 
	C223.700928,7.571145 220.743179,2.820611 214.155121,1.324512 
	C217.921982,1.000000 221.843964,1.000000 226.000000,1.000000 
	C226.000000,4.678595 226.000000,8.360122 226.000000,12.520824 
z"/>
<path fill="#FFF6F4" opacity="1.000000" stroke="none" 
	d="
M1.000000,214.482956 
	C3.573133,218.488922 6.430164,222.684402 11.858593,224.684021 
	C8.412791,225.000000 4.825583,225.000000 1.000000,225.000000 
	C1.000000,221.657455 1.000000,218.311676 1.000000,214.482956 
z"/>
<path fill="#FFFDFD" opacity="1.000000" stroke="none" 
	d="
M160.763199,88.023361 
	C157.516632,74.380173 149.514969,67.305840 133.917938,65.038620 
	C103.374214,65.070343 73.693779,65.115990 44.013340,65.161629 
	C43.647148,62.000664 43.100849,58.847717 42.959591,55.676735 
	C42.776104,51.557869 42.914764,47.424660 42.914764,43.283531 
	C43.690113,43.028893 44.131317,42.757420 44.572727,42.757092 
	C74.327362,42.734909 104.088524,42.348278 133.834702,42.849442 
	C159.551392,43.282711 178.902328,60.402946 183.591034,86.194656 
	C183.857529,118.979210 183.936920,150.993729 184.016296,183.008255 
	C176.702805,183.054886 169.389328,183.101501 161.652191,182.584641 
	C161.237076,152.997925 161.256775,123.974678 161.232788,94.951469 
	C161.230881,92.641975 160.926834,90.332726 160.763199,88.023361 
z"/>
<path fill="#FFFBF9" opacity="1.000000" stroke="none" 
	d="
M104.996323,183.002151 
	C97.675079,183.039032 90.353844,183.075912 82.677650,182.557037 
	C82.326958,153.812927 82.346779,125.624535 82.313637,97.436203 
	C82.309944,94.295891 82.005028,91.155930 81.839813,88.015808 
	C81.441879,86.262650 81.043953,84.509491 80.642548,82.741066 
	C96.057503,80.826706 101.808327,81.977898 104.910225,92.133240 
	C104.983345,122.956703 104.989838,152.979431 104.996323,183.002151 
z"/>
<path fill="#FFFBFA" opacity="1.000000" stroke="none" 
	d="
M65.530190,105.019676 
	C65.530151,131.269287 65.530151,157.022415 65.530151,183.041931 
	C57.815777,183.041931 50.563908,183.041931 43.108692,183.041931 
	C43.108692,149.487274 43.108692,116.085289 43.108692,82.155922 
	C47.291142,82.155922 51.417030,81.841171 55.474541,82.233566 
	C60.853863,82.753784 64.765022,86.928055 65.294495,92.555641 
	C65.667221,96.517151 65.471909,100.532104 65.530190,105.019676 
z"/>
<path fill="#FFFEFE" opacity="1.000000" stroke="none" 
	d="
M121.834732,91.020592 
	C121.372574,88.260498 120.910423,85.500404 120.362183,82.226181 
	C125.169952,82.226181 130.088760,81.809677 134.905121,82.334167 
	C140.613007,82.955742 144.202866,87.642570 144.284729,94.036736 
	C144.429764,105.365501 144.345871,116.697250 144.348572,128.027756 
	C144.352890,146.181198 144.349716,164.334625 144.349716,183.243225 
	C137.072586,183.243225 129.986221,183.243225 122.450623,182.655792 
	C121.945839,151.719116 121.890289,121.369850 121.834732,91.020592 
z"/>
<path fill="#FE3B00" opacity="1.000000" stroke="none" 
	d="
M184.246964,182.664093 
	C183.936920,150.993729 183.857529,118.979210 183.814789,86.498734 
	C184.233246,87.597504 184.944519,89.161484 184.948074,90.727074 
	C185.014816,120.120583 185.003479,149.514282 184.976074,178.907928 
	C184.975006,180.045410 184.651108,181.182587 184.246964,182.664093 
z"/>
<path fill="#FE4400" opacity="1.000000" stroke="none" 
	d="
M81.638153,88.373291 
	C82.005028,91.155930 82.309944,94.295891 82.313637,97.436203 
	C82.346779,125.624535 82.326958,153.812927 82.294388,182.464676 
	C81.845360,181.552643 81.060707,180.178085 81.057487,178.801697 
	C80.989105,149.589905 81.005180,120.377892 81.028801,91.165947 
	C81.029457,90.354111 81.294647,89.542488 81.638153,88.373291 
z"/>
<path fill="#FE4400" opacity="1.000000" stroke="none" 
	d="
M160.578812,88.388428 
	C160.926834,90.332726 161.230881,92.641975 161.232788,94.951469 
	C161.256775,123.974678 161.237076,152.997925 161.203415,182.486176 
	C160.786591,181.560867 160.055893,180.171204 160.053177,178.780090 
	C159.995667,149.419998 160.017853,120.059746 160.043915,90.699547 
	C160.044495,90.050766 160.272507,89.402176 160.578812,88.388428 
z"/>
<path fill="#FE3F00" opacity="1.000000" stroke="none" 
	d="
M121.634155,91.378105 
	C121.890289,121.369850 121.945839,151.719116 121.994133,182.537506 
	C121.658539,181.586182 121.046570,180.166275 121.043777,178.745163 
	C120.988693,150.719193 120.999962,122.693085 121.023514,94.667023 
	C121.024330,93.689774 121.290878,92.712746 121.634155,91.378105 
z"/>
<path fill="#FE3F00" opacity="1.000000" stroke="none" 
	d="
M105.229828,182.660126 
	C104.989838,152.979431 104.983345,122.956703 105.039024,92.468498 
	C105.400352,93.435730 105.957794,94.867973 105.960457,96.301239 
	C106.011726,123.838684 106.004257,151.376236 105.974930,178.913742 
	C105.973717,180.048706 105.641396,181.183319 105.229828,182.660126 
z"/>
<path fill="#FE4400" opacity="1.000000" stroke="none" 
	d="
M44.371967,65.361511 
	C73.693779,65.115990 103.374214,65.070343 133.517181,65.096199 
	C132.532654,65.444778 131.086014,65.961060 129.638489,65.963524 
	C102.317299,66.010056 74.995987,66.000328 47.674736,65.976044 
	C46.693233,65.975174 45.711971,65.705696 44.371967,65.361511 
z"/>
</svg>